<svg width="17" height="16" viewBox="0 0 17 16" fill="none" xmlns="http://www.w3.org/2000/svg">
<path d="M7.86914 15.2952L1.26914 8.69523C1.16914 8.59523 1.09831 8.48689 1.05664 8.37023C1.01497 8.25356 0.994141 8.12856 0.994141 7.99523C0.994141 7.86189 1.01497 7.73689 1.05664 7.62023C1.09831 7.50356 1.16914 7.39523 1.26914 7.29523L7.86914 0.695227C8.05247 0.511893 8.28164 0.41606 8.55664 0.407727C8.83164 0.399393 9.06914 0.495227 9.26914 0.695227C9.46914 0.87856 9.57331 1.10773 9.58164 1.38273C9.58997 1.65773 9.49414 1.89523 9.29414 2.09523L4.39414 6.99523H15.5691C15.8525 6.99523 16.09 7.09106 16.2816 7.28273C16.4733 7.47439 16.5691 7.71189 16.5691 7.99523C16.5691 8.27856 16.4733 8.51606 16.2816 8.70773C16.09 8.89939 15.8525 8.99523 15.5691 8.99523H4.39414L9.29414 13.8952C9.47747 14.0786 9.57331 14.3119 9.58164 14.5952C9.58997 14.8786 9.49414 15.1119 9.29414 15.2952C9.11081 15.4952 8.87747 15.5952 8.59414 15.5952C8.31081 15.5952 8.06914 15.4952 7.86914 15.2952Z" fill="#11002C"/>
</svg>
