<svg width="16" height="18" viewBox="0 0 16 18" fill="none" xmlns="http://www.w3.org/2000/svg">
<path d="M2 16H5V10H11V16H14V7L8 2.5L2 7V16ZM2 18C1.45 18 0.979167 17.8042 0.5875 17.4125C0.195833 17.0208 0 16.55 0 16V7C0 6.68333 0.0708333 6.38333 0.2125 6.1C0.354167 5.81667 0.55 5.58333 0.8 5.4L6.8 0.9C6.98333 0.766667 7.175 0.666667 7.375 0.6C7.575 0.533333 7.78333 0.5 8 0.5C8.21667 0.5 8.425 0.533333 8.625 0.6C8.825 0.666667 9.01667 0.766667 9.2 0.9L15.2 5.4C15.45 5.58333 15.6458 5.81667 15.7875 6.1C15.9292 6.38333 16 6.68333 16 7V16C16 16.55 15.8042 17.0208 15.4125 17.4125C15.0208 17.8042 14.55 18 14 18H9V12H7V18H2Z" fill="#11002C"/>
</svg>
