<svg width="374" height="119" viewBox="0 0 374 119" fill="none" xmlns="http://www.w3.org/2000/svg">
<g clip-path="url(#clip0_1117_212)">
<path d="M26.8382 37.8641C27.7759 38.8018 29.0477 39.3286 30.3738 39.3286H55.1723C57.9338 39.3286 60.1724 41.5671 60.1724 44.3286V69.1272C60.1724 70.4533 60.6991 71.7251 61.6368 72.6628L71.4654 82.4913C74.6152 85.6411 80.0009 83.4103 80.0009 78.9558V24.5C80.0009 21.7386 77.7623 19.5 75.0009 19.5H20.5452C16.0907 19.5 13.8598 24.8857 17.0097 28.0355L26.8382 37.8641Z" fill="#4054D6"/>
<path d="M53.1628 81.1368C52.2251 80.1991 50.9533 79.6724 49.6272 79.6724H24.8286C22.0672 79.6724 19.8286 77.4338 19.8286 74.6724V49.8738C19.8286 48.5477 19.3018 47.2759 18.3641 46.3382L8.53554 36.5097C5.38572 33.3598 0 35.5907 0 40.0452V94.5009C0 97.2624 2.23858 99.5009 5 99.5009H59.4558C63.9103 99.5009 66.1412 94.1152 62.9913 90.9654L53.1628 81.1368Z" fill="#4054D6"/>
</g>
<path d="M118.543 24.2969H139.148C146.831 24.2969 153.585 25.7617 159.412 28.6914C165.239 31.5885 169.747 35.7064 172.938 41.0449C176.16 46.3835 177.788 52.5846 177.82 59.6484C177.788 66.7122 176.16 72.9134 172.938 78.252C169.747 83.5905 165.239 87.7246 159.412 90.6543C153.585 93.5514 146.831 95 139.148 95H118.543V24.2969ZM139.148 83.2812C144.552 83.2812 149.191 82.3535 153.064 80.498C156.971 78.61 159.949 75.9082 162 72.3926C164.083 68.8444 165.125 64.5964 165.125 59.6484C165.125 54.7005 164.083 50.4688 162 46.9531C159.949 43.4049 156.971 40.7031 153.064 38.8477C149.191 36.9596 144.552 36.0156 139.148 36.0156H131.043V83.2812H139.148ZM187.977 44.6094H199.891V95H187.977V44.6094ZM194.031 36.1133C192.632 36.1133 191.362 35.804 190.223 35.1855C189.116 34.5671 188.237 33.7044 187.586 32.5977C186.935 31.4909 186.609 30.2539 186.609 28.8867C186.609 27.5521 186.919 26.3314 187.537 25.2246C188.188 24.1178 189.067 23.2552 190.174 22.6367C191.313 21.9857 192.566 21.6602 193.934 21.6602C195.301 21.6602 196.538 21.9857 197.645 22.6367C198.784 23.2552 199.663 24.1178 200.281 25.2246C200.932 26.3314 201.258 27.5521 201.258 28.8867C201.258 30.2214 200.932 31.4421 200.281 32.5488C199.663 33.6556 198.8 34.5345 197.693 35.1855C196.587 35.804 195.366 36.1133 194.031 36.1133ZM212.195 44.6094H224.109V51.8359H224.549C226.176 48.9714 228.276 46.8229 230.848 45.3906C233.452 43.9583 236.479 43.2422 239.93 43.2422C244.487 43.2422 248.556 44.3978 252.137 46.709C255.75 49.0202 258.566 52.2103 260.584 56.2793C262.635 60.3158 263.66 64.8242 263.66 69.8047C263.66 74.7852 262.635 79.3099 260.584 83.3789C258.566 87.4154 255.75 90.5892 252.137 92.9004C248.556 95.2116 244.487 96.3672 239.93 96.3672C236.479 96.3672 233.452 95.651 230.848 94.2188C228.276 92.7865 226.176 90.638 224.549 87.7734H224.109V116.094H212.195V44.6094ZM237.586 85.332C240.288 85.332 242.697 84.6647 244.812 83.3301C246.961 81.9954 248.621 80.1562 249.793 77.8125C250.965 75.4688 251.551 72.7995 251.551 69.8047C251.551 66.8099 250.965 64.1406 249.793 61.7969C248.621 59.4531 246.961 57.6139 244.812 56.2793C242.697 54.9447 240.288 54.2773 237.586 54.2773C234.949 54.2773 232.573 54.9447 230.457 56.2793C228.374 57.5814 226.73 59.4206 225.525 61.7969C224.321 64.1406 223.719 66.8099 223.719 69.8047C223.719 72.7995 224.321 75.485 225.525 77.8613C226.73 80.2051 228.374 82.0443 230.457 83.3789C232.573 84.681 234.949 85.332 237.586 85.332ZM319.031 95H307.117V87.5781H306.775C305.408 90.3125 303.374 92.4609 300.672 94.0234C298.003 95.5859 294.91 96.3672 291.395 96.3672C287.618 96.3672 284.38 95.5046 281.678 93.7793C279.008 92.054 276.974 89.5801 275.574 86.3574C274.207 83.1022 273.523 79.2448 273.523 74.7852V44.6094H285.535V72.832C285.503 76.8034 286.333 79.8796 288.025 82.0605C289.751 84.209 292.208 85.2995 295.398 85.332C297.579 85.2995 299.549 84.7624 301.307 83.7207C303.064 82.679 304.464 81.0677 305.506 78.8867C306.58 76.7057 307.117 74.0039 307.117 70.7812V44.6094H319.031V95ZM331.336 24.2969H343.25V95H331.336V24.2969ZM355.555 24.2969H367.469V95H355.555V24.2969Z" fill="#4054D6"/>
<defs>
<clipPath id="clip0_1117_212">
<rect width="80" height="80" fill="white" transform="translate(0 19.5)"/>
</clipPath>
</defs>
</svg>
